<svg xmlns="http://www.w3.org/2000/svg" xmlns:xlink="http://www.w3.org/1999/xlink" width="2000" zoomAndPan="magnify" viewBox="0 0 1500 1499.999933" height="2000" preserveAspectRatio="xMidYMid meet" version="1.0"><defs><clipPath id="a9226eb3e0"><path d="M 369 785 L 1421 785 L 1421 1275.75 L 369 1275.75 Z M 369 785 " clip-rule="nonzero"/></clipPath><clipPath id="931dabf981"><path d="M 369 224.25 L 1156 224.25 L 1156 715 L 369 715 Z M 369 224.25 " clip-rule="nonzero"/></clipPath></defs><path fill="#4da72e" d="M 145.324219 1012.667969 L 6.683594 772.132812 C -1.667969 758.769531 -1.667969 742.066406 5.847656 727.867188 L 145.324219 487.332031 L 238.027344 326.976562 C 241.371094 319.460938 247.214844 312.78125 254.734375 308.605469 C 275.613281 296.910156 302.339844 303.59375 314.03125 324.472656 L 547.046875 727.867188 C 554.566406 740.394531 555.398438 757.097656 547.046875 771.296875 L 314.03125 1175.527344 C 309.855469 1181.375 304.84375 1187.21875 298.164062 1191.394531 C 277.28125 1203.089844 251.390625 1195.570312 239.699219 1175.527344 L 146.992188 1015.171875 C 146.160156 1014.335938 146.160156 1013.5 145.324219 1012.667969 Z M 145.324219 1012.667969 " fill-opacity="1" fill-rule="nonzero"/><g clip-path="url(#a9226eb3e0)"><path fill="#4da72e" d="M 1376.386719 934.992188 C 1376.386719 934.992188 1250.273438 857.320312 1140.03125 869.847656 C 1117.480469 913.277344 1075.722656 977.589844 1055.675781 1012.667969 L 917.871094 1249.859375 C 911.1875 1264.890625 896.15625 1275.75 878.617188 1275.75 L 412.582031 1275.75 L 412.582031 1274.914062 C 405.066406 1274.914062 397.550781 1273.246094 390.867188 1269.070312 C 370.824219 1257.375 363.308594 1231.484375 375 1210.605469 L 606.347656 810.550781 C 613.027344 795.519531 628.0625 785.496094 645.601562 785.496094 L 1111.632812 785.496094 C 1111.632812 785.496094 1367.203125 788 1403.949219 827.253906 C 1440.699219 867.34375 1410.632812 917.453125 1376.386719 934.992188 Z M 1376.386719 934.992188 " fill-opacity="1" fill-rule="nonzero"/></g><g clip-path="url(#931dabf981)"><path fill="#aadd38" d="M 1055.675781 487.332031 L 1147.546875 646.855469 C 1152.558594 653.535156 1155.0625 661.886719 1155.0625 671.074219 C 1155.0625 695.296875 1135.855469 714.503906 1111.632812 714.503906 L 645.601562 714.503906 C 630.566406 714.503906 616.367188 706.152344 608.015625 692.789062 L 377.503906 292.734375 C 372.492188 285.21875 369.152344 276.867188 369.152344 267.679688 C 369.152344 243.460938 388.363281 224.25 412.582031 224.25 L 878.617188 224.25 C 893.652344 224.25 907.847656 232.601562 916.199219 245.964844 L 1054.007812 484.828125 C 1054.839844 485.664062 1054.839844 486.5 1055.675781 487.332031 Z M 1055.675781 487.332031 " fill-opacity="1" fill-rule="nonzero"/></g><path fill="#4da72e" d="M 1234.40625 702.8125 C 1215.199219 632.65625 1233.570312 554.148438 1288.695312 499.027344 C 1343.816406 443.902344 1422.324219 425.53125 1492.480469 443.902344 C 1511.6875 514.894531 1493.3125 592.566406 1438.191406 647.691406 C 1383.070312 703.648438 1304.5625 721.1875 1234.40625 702.8125 Z M 1234.40625 702.8125 " fill-opacity="1" fill-rule="evenodd"/></svg>